<svg width="370" height="457" viewBox="0 0 370 457" fill="none" xmlns="http://www.w3.org/2000/svg">
<rect y="22" width="62.64" height="62.64" rx="31.32" fill="url(#paint0_linear_66_447)"/>
<path d="M47.7535 63.0924C47.1778 62.6991 48.3538 63.4857 47.7535 63.0924C48.2633 63.4201 48.4607 64.092 48.2304 64.6491C48.0248 65.1407 47.5232 65.4521 46.9969 65.4275C46.4459 65.4029 45.9689 65.0342 45.8209 64.5262C45.6564 64.0018 45.862 63.4365 46.2979 63.117C46.7255 62.8138 47.3258 62.8056 47.7617 63.1006L47.7535 63.0924ZM31.3554 75.0054C31.6515 75.0054 31.9311 75.0054 32.2354 75.0054C32.811 74.9726 33.4031 74.9235 33.9788 74.8661C33.0248 74.9726 34.4475 74.8088 33.9788 74.8661C34.5545 74.7842 35.0479 75.3413 34.9081 75.9067C34.8423 76.1688 34.6614 76.3983 34.4147 76.4802C34.2502 76.5621 34.0857 76.5621 33.9212 76.5785C33.7321 76.6031 33.5347 76.6195 33.3456 76.6359C31.7831 76.767 30.2206 76.7424 28.6827 76.5785C27.2847 76.4146 25.8867 76.1443 24.5462 75.7428C23.2304 75.3577 21.964 74.8415 20.7387 74.2107C19.5051 73.5798 18.3373 72.8178 17.2354 71.9985C15.9771 71.0399 14.8094 69.9665 13.7814 68.7867C12.737 67.6233 11.8077 66.3451 11.0347 64.9932C10.237 63.6004 9.57912 62.1502 9.0857 60.6508C8.57583 59.0941 8.23044 57.4964 8.04952 55.8823C7.88504 54.2437 7.8686 52.5804 8.04952 50.9336C8.21399 49.3195 8.54294 47.7218 9.03636 46.1651C9.52978 44.6494 10.1712 43.1828 10.9607 41.7981C11.742 40.4216 12.6712 39.1271 13.7156 37.9309C14.7354 36.7511 15.8949 35.6695 17.1449 34.7191C18.4031 33.7687 19.7765 32.933 21.1992 32.2448C22.6548 31.5401 24.1762 30.9912 25.7469 30.6061C27.3505 30.2128 28.987 29.9834 30.6318 29.9343C32.2765 29.8769 33.9377 29.9916 35.566 30.2784C37.1449 30.5651 38.691 31.0158 40.1877 31.6057C41.6515 32.1956 43.066 32.933 44.3818 33.8179C45.6975 34.6782 46.9311 35.6777 48.0413 36.792C48.51 37.259 48.9459 37.7424 49.2337 38.3487C49.4804 38.8649 49.6449 39.4303 49.6696 40.012C49.7518 41.1918 49.3406 42.3716 48.5429 43.2565C47.6219 44.2807 46.2403 44.8378 44.867 44.7313C44.2091 44.6903 43.5512 44.5019 42.9755 44.1742C42.663 44.0103 42.3834 43.7973 42.1367 43.5597C41.8489 43.2893 41.5857 43.0025 41.2979 42.7403C40.1466 41.6752 38.8308 40.7739 37.3998 40.1349C35.9196 39.4794 34.3406 39.0534 32.737 38.9059C31.0923 38.7666 29.4311 38.8895 27.8275 39.291C26.265 39.676 24.7847 40.3233 23.4443 41.2C22.1285 42.0603 20.9525 43.1336 19.9903 44.3708C19.0035 45.6162 18.214 47.0172 17.6877 48.5166C17.1449 50.0487 16.8653 51.6628 16.8653 53.2687C16.8653 54.9073 17.1285 56.546 17.6712 58.0781C18.1893 59.5529 18.9541 60.9621 19.9245 62.2075C20.8949 63.4365 22.0627 64.518 23.3785 65.3865C24.7189 66.2714 26.2074 66.9432 27.7617 67.3365C29.3571 67.7462 31.0265 67.8855 32.6712 67.7462C34.2748 67.6069 35.8456 67.1972 37.3176 66.55C37.4821 66.468 37.6219 66.3861 37.7864 66.3615C37.9179 66.3287 38.066 66.3369 38.1975 66.3779C38.4771 66.4598 38.691 66.6892 38.7732 66.9514C38.8554 67.23 38.7732 67.525 38.6087 67.738C38.5018 67.8609 38.362 67.9346 38.2222 68.0084C38.0577 68.0903 37.8686 68.1722 37.6877 68.2378C36.2074 68.8686 34.612 69.2619 33.0002 69.4258C31.3554 69.5897 29.6943 69.4913 28.0824 69.1636C28.288 69.4094 28.4936 69.6552 28.6745 69.9174C28.8637 70.1796 29.0446 70.4418 29.2255 70.7203C29.242 70.7613 29.3077 70.8678 29.3077 70.8678C29.3077 70.8678 29.3406 70.8678 29.39 70.8678C29.4722 70.8842 29.5545 70.8924 29.6367 70.9006C29.8012 70.9252 29.9656 70.9333 30.1301 70.9497C30.8209 70.9907 31.5035 70.9989 32.186 70.9743C33.5265 70.917 34.8587 70.7039 36.1499 70.3434C37.4081 69.9993 38.617 69.5077 39.7683 68.8932C40.8949 68.2951 41.9475 67.5823 42.9179 66.7466C43.1646 66.55 43.3867 66.3369 43.617 66.1239C43.8225 65.9355 44.0035 65.7142 44.2584 65.5831C44.6943 65.3619 45.2452 65.4193 45.6318 65.7224C46.0183 66.0338 46.2074 66.5418 46.0841 67.0334C46.0183 67.2792 45.8867 67.484 45.7058 67.6642C45.4837 67.8855 45.2535 68.0985 45.0232 68.3197C44.0939 69.1636 43.0742 69.9256 41.9804 70.5892C40.8867 71.2447 39.7271 71.8182 38.5265 72.2689C37.2765 72.7277 35.9936 73.0718 34.686 73.2848C33.3373 73.4896 31.9722 73.5716 30.6071 73.5306C30.714 73.8256 30.8127 74.1287 30.9031 74.4319C30.9443 74.5712 30.9854 74.7104 31.0183 74.8415C31.0183 74.8907 31.0594 75.0218 31.0594 75.0218H31.3308L31.3554 75.0054ZM44.4558 70.6957C42.0462 72.4983 44.8341 70.4172 44.4558 70.6957C44.5873 70.6138 44.7436 70.5483 44.8998 70.5319C45.2288 70.5073 45.5413 70.6712 45.7058 70.9415C45.8702 71.2283 45.8702 71.597 45.6811 71.8592C45.5742 72.0231 45.4179 72.105 45.2699 72.2197C45.1054 72.3426 44.9245 72.4655 44.7518 72.5802C44.4229 72.826 44.0693 73.039 43.7239 73.2602C42.3094 74.1123 40.8127 74.817 39.2584 75.3741C38.4854 75.6445 37.6959 75.8657 36.89 76.0623C36.5281 76.1443 36.1745 76.0869 35.936 75.792C35.7304 75.5216 35.6893 75.1529 35.8538 74.8579C35.9114 74.7186 36.0183 74.6121 36.1581 74.5302C36.3225 74.4237 36.5035 74.3991 36.6762 74.3663C37.0873 74.2598 37.4821 74.1451 37.8768 74.0222C38.6581 73.7764 39.4393 73.4978 40.1795 73.1619C41.6926 72.4901 43.1235 71.6544 44.4393 70.6712L44.4558 70.6957ZM47.2929 68.1804C46.9969 68.4836 47.6219 67.8281 47.2929 68.1804C47.6712 67.7707 48.362 67.8363 48.6498 68.3115C48.765 68.5081 48.7979 68.7457 48.7321 68.967C48.6745 69.2373 48.4525 69.4258 48.2633 69.6224C48.0495 69.8518 47.8193 70.0731 47.589 70.2943C47.3752 70.4909 47.112 70.6056 46.8242 70.5647C46.3143 70.4827 45.9854 69.9747 46.1334 69.4995C46.2156 69.221 46.4295 69.0571 46.6268 68.8686C46.8571 68.6474 47.0873 68.4098 47.3094 68.1804H47.2929ZM41.9475 63.2645C41.1252 64.1247 42.2765 62.9203 41.9475 63.2645C42.2272 62.9695 42.6877 62.9121 43.0166 63.1252C43.3702 63.3382 43.51 63.7806 43.3702 64.1575C43.288 64.3378 43.1482 64.4852 43.0002 64.6245C42.8604 64.7884 42.7041 64.9277 42.5479 65.0834C42.2765 65.3292 41.9969 65.575 41.7008 65.8208C41.3883 66.0666 41.0676 66.3124 40.7469 66.5336C40.4179 66.7794 39.9656 66.7958 39.6449 66.5336C39.3653 66.2878 39.2748 65.8945 39.3982 65.5504C39.4804 65.3865 39.5873 65.2636 39.7271 65.1653C39.8916 65.0424 40.0725 64.9195 40.2452 64.7884C40.862 64.3296 41.4295 63.8052 41.9722 63.2563L41.9475 63.2645ZM31.4377 47.7628C31.7255 47.7628 32.0133 47.7792 32.2929 47.8283C33.4031 47.9922 34.4558 48.5166 35.2699 49.3031C36.0923 50.0733 36.6515 51.0893 36.8818 52.1954C37.112 53.326 36.964 54.5222 36.4952 55.5792C36.0429 56.5951 35.2781 57.4636 34.3242 58.0372C33.3373 58.6353 32.1614 58.9138 31.01 58.8237C29.8752 58.7418 28.7897 58.2911 27.9015 57.5701C27.038 56.8573 26.4048 55.8905 26.0923 54.8172C25.7798 53.7029 25.8209 52.4985 26.2156 51.4088C26.6021 50.3683 27.3094 49.4424 28.2222 48.8033C29.1597 48.1479 30.2946 47.7792 31.4295 47.7792L31.4377 47.7628Z" fill="white"/>
<path d="M89.6677 40.2417C89.2224 36.5464 86.4255 34.4214 82.7224 34.4214C78.4958 34.4214 75.2693 37.4058 75.2693 42.6401C75.2693 47.8589 78.4412 50.8589 82.7224 50.8589C86.824 50.8589 89.3005 48.1323 89.6677 45.187L86.2458 45.1714C85.9255 46.8823 84.5818 47.8667 82.7771 47.8667C80.3474 47.8667 78.699 46.062 78.699 42.6401C78.699 39.312 80.324 37.4136 82.8005 37.4136C84.6521 37.4136 85.988 38.4839 86.2458 40.2417H89.6677ZM95.1791 43.7026C95.1869 42.1558 96.1323 41.2495 97.4916 41.2495C98.8432 41.2495 99.6401 42.1167 99.6323 43.5933V50.6401H102.96V42.9995C102.968 40.187 101.312 38.4839 98.8119 38.4839C96.9916 38.4839 95.7729 39.3433 95.226 40.7573H95.0854V34.6401H91.851V50.6401H95.1791V43.7026ZM108.821 50.8667C110.595 50.8667 111.743 50.0933 112.329 48.9761H112.423V50.6401H115.579V42.5464C115.579 39.687 113.157 38.4839 110.485 38.4839C107.61 38.4839 105.72 39.8589 105.259 42.0464L108.337 42.2964C108.564 41.4995 109.275 40.9136 110.47 40.9136C111.603 40.9136 112.251 41.4839 112.251 42.4683V42.5151C112.251 43.2886 111.431 43.3901 109.345 43.5933C106.97 43.812 104.837 44.6089 104.837 47.2886C104.837 49.6636 106.532 50.8667 108.821 50.8667ZM109.775 48.5698C108.751 48.5698 108.017 48.0933 108.017 47.1792C108.017 46.2417 108.79 45.7808 109.962 45.6167C110.689 45.5151 111.876 45.3433 112.275 45.0776V46.3511C112.275 47.6089 111.235 48.5698 109.775 48.5698ZM117.981 50.6401H121.309V43.8511C121.309 42.3745 122.387 41.3589 123.856 41.3589C124.317 41.3589 124.95 41.437 125.262 41.5386V38.5854C124.966 38.5151 124.552 38.4683 124.216 38.4683C122.872 38.4683 121.77 39.2495 121.333 40.7339H121.208V38.6401H117.981V50.6401ZM131.651 55.3901C135.081 55.3901 137.518 53.8276 137.518 50.7573V38.6401H134.213V40.6558H134.088C133.643 39.6792 132.666 38.4839 130.659 38.4839C128.026 38.4839 125.799 40.5308 125.799 44.6167C125.799 48.6089 127.963 50.4683 130.666 50.4683C132.581 50.4683 133.651 49.5073 134.088 48.5151H134.229V50.7104C134.229 52.3589 133.174 52.9995 131.729 52.9995C130.26 52.9995 129.518 52.3589 129.245 51.6323L126.166 52.0464C126.565 53.937 128.416 55.3901 131.651 55.3901ZM131.721 47.9683C130.088 47.9683 129.198 46.6714 129.198 44.6011C129.198 42.562 130.073 41.1323 131.721 41.1323C133.338 41.1323 134.245 42.4995 134.245 44.6011C134.245 46.7183 133.323 47.9683 131.721 47.9683ZM145.455 50.8745C148.424 50.8745 150.424 49.4292 150.893 47.2026L147.815 46.9995C147.479 47.9136 146.619 48.3901 145.51 48.3901C143.846 48.3901 142.791 47.2886 142.791 45.4995V45.4917H150.963V44.5776C150.963 40.4995 148.494 38.4839 145.322 38.4839C141.791 38.4839 139.502 40.9917 139.502 44.6948C139.502 48.4995 141.76 50.8745 145.455 50.8745ZM142.791 43.4292C142.861 42.062 143.901 40.9683 145.377 40.9683C146.822 40.9683 147.822 41.9995 147.83 43.4292H142.791ZM153.017 50.6401H156.299V48.7183H156.447C156.908 49.7183 157.916 50.8354 159.853 50.8354C162.588 50.8354 164.721 48.6714 164.721 44.6558C164.721 40.5308 162.494 38.4839 159.861 38.4839C157.853 38.4839 156.892 39.6792 156.447 40.6558H156.346V34.6401H153.017V50.6401ZM156.275 44.6401C156.275 42.4995 157.181 41.1323 158.799 41.1323C160.447 41.1323 161.322 42.562 161.322 44.6401C161.322 46.7339 160.431 48.187 158.799 48.187C157.197 48.187 156.275 46.7808 156.275 44.6401ZM172.23 50.8745C175.199 50.8745 177.199 49.4292 177.667 47.2026L174.589 46.9995C174.253 47.9136 173.394 48.3901 172.285 48.3901C170.621 48.3901 169.566 47.2886 169.566 45.4995V45.4917H177.738V44.5776C177.738 40.4995 175.269 38.4839 172.097 38.4839C168.566 38.4839 166.277 40.9917 166.277 44.6948C166.277 48.4995 168.535 50.8745 172.23 50.8745ZM169.566 43.4292C169.636 42.062 170.675 40.9683 172.152 40.9683C173.597 40.9683 174.597 41.9995 174.605 43.4292H169.566ZM185.198 50.8745C188.167 50.8745 190.167 49.4292 190.636 47.2026L187.558 46.9995C187.222 47.9136 186.362 48.3901 185.253 48.3901C183.589 48.3901 182.534 47.2886 182.534 45.4995V45.4917H190.706V44.5776C190.706 40.4995 188.237 38.4839 185.066 38.4839C181.534 38.4839 179.245 40.9917 179.245 44.6948C179.245 48.4995 181.503 50.8745 185.198 50.8745ZM182.534 43.4292C182.605 42.062 183.644 40.9683 185.12 40.9683C186.566 40.9683 187.566 41.9995 187.573 43.4292H182.534ZM81.2224 73.6401C86.0974 73.6401 89.0505 70.6245 89.0505 65.6245C89.0505 60.6401 86.0974 57.6401 81.2693 57.6401H75.5505V73.6401H81.2224ZM78.9333 70.7417V60.5386H81.0896C84.0896 60.5386 85.6755 62.0698 85.6755 65.6245C85.6755 69.1948 84.0896 70.7417 81.0818 70.7417H78.9333ZM96.7826 73.8745C99.7514 73.8745 101.751 72.4292 102.22 70.2026L99.142 69.9995C98.8061 70.9136 97.9467 71.3901 96.8373 71.3901C95.1733 71.3901 94.1186 70.2886 94.1186 68.4995V68.4917H102.29V67.5776C102.29 63.4995 99.8217 61.4839 96.6498 61.4839C93.1186 61.4839 90.8295 63.9917 90.8295 67.6948C90.8295 71.4995 93.0873 73.8745 96.7826 73.8745ZM94.1186 66.4292C94.1889 65.062 95.228 63.9683 96.7045 63.9683C98.1498 63.9683 99.1498 64.9995 99.1576 66.4292H94.1186ZM114.267 65.062C113.97 62.8511 112.189 61.4839 109.157 61.4839C106.087 61.4839 104.064 62.9058 104.071 65.2183C104.064 67.0151 105.196 68.1792 107.54 68.6479L109.618 69.062C110.665 69.2729 111.142 69.6558 111.157 70.2573C111.142 70.9683 110.368 71.4761 109.204 71.4761C108.017 71.4761 107.228 70.9683 107.025 69.9917L103.751 70.1636C104.064 72.4604 106.017 73.8745 109.196 73.8745C112.306 73.8745 114.532 72.2886 114.54 69.9214C114.532 68.187 113.4 67.1479 111.071 66.6714L108.9 66.2339C107.782 65.9917 107.368 65.6089 107.376 65.0308C107.368 64.312 108.181 63.8433 109.212 63.8433C110.368 63.8433 111.056 64.4761 111.22 65.2495L114.267 65.062ZM116.456 73.6401H119.784V61.6401H116.456V73.6401ZM118.128 60.0933C119.12 60.0933 119.932 59.3354 119.932 58.4058C119.932 57.4839 119.12 56.7261 118.128 56.7261C117.143 56.7261 116.331 57.4839 116.331 58.4058C116.331 59.3354 117.143 60.0933 118.128 60.0933ZM127.676 78.3901C131.106 78.3901 133.543 76.8276 133.543 73.7573V61.6401H130.239V63.6558H130.114C129.668 62.6792 128.692 61.4839 126.684 61.4839C124.051 61.4839 121.825 63.5308 121.825 67.6167C121.825 71.6089 123.989 73.4683 126.692 73.4683C128.606 73.4683 129.676 72.5073 130.114 71.5151H130.254V73.7104C130.254 75.3589 129.2 75.9995 127.754 75.9995C126.286 75.9995 125.543 75.3589 125.27 74.6323L122.192 75.0464C122.59 76.937 124.442 78.3901 127.676 78.3901ZM127.747 70.9683C126.114 70.9683 125.223 69.6714 125.223 67.6011C125.223 65.562 126.098 64.1323 127.747 64.1323C129.364 64.1323 130.27 65.4995 130.27 67.6011C130.27 69.7183 129.348 70.9683 127.747 70.9683ZM139.34 66.7026C139.348 65.1558 140.27 64.2495 141.613 64.2495C142.949 64.2495 143.754 65.1245 143.746 66.5933V73.6401H147.074V65.9995C147.074 63.2026 145.434 61.4839 142.934 61.4839C141.152 61.4839 139.863 62.3589 139.324 63.7573H139.184V61.6401H136.012V73.6401H139.34V66.7026Z" fill="#5B616C"/>
<rect x="8" y="220.611" width="388.444" height="47.5" fill="url(#paint1_linear_66_447)"/>
<path d="M597 200.15C597 89.6127 502.007 0 384.833 0C267.66 0 172.667 89.6127 172.667 200.15C172.666 206.983 173.031 213.813 173.763 220.611H595.904C596.635 213.813 597.001 206.983 597 200.15Z" fill="#FF6B00"/>
<g filter="url(#filter0_f_66_447)">
<ellipse cx="394.378" cy="119.974" rx="113.65" ry="112.807" transform="rotate(-75 394.378 119.974)" fill="#FBEAC1"/>
</g>
<path d="M325.632 225.537L325.613 225.309C325.572 225.278 325.546 225.236 325.538 225.19C325.546 225.236 325.572 225.278 325.613 225.309C325.672 225.142 325.66 224.962 325.579 224.802C325.579 224.773 325.579 224.741 325.563 224.712H325.473H325.563C325.59 224.619 325.595 224.522 325.577 224.427C325.56 224.333 325.52 224.242 325.46 224.16C325.46 224.113 325.438 224.065 325.426 224.02C325.413 223.975 325.426 223.885 325.448 223.816V223.649C325.423 223.187 325.22 222.747 325.208 222.283L325.148 222.094C325.23 222.025 325.148 222.004 325.098 221.983C325.098 221.951 325.098 221.919 325.077 221.887C325.115 221.815 325.126 221.733 325.108 221.655C325.09 221.577 325.045 221.505 324.977 221.45C324.955 221.381 324.93 221.312 324.908 221.243C324.952 221.139 325.102 221.023 324.855 220.956C324.855 220.925 324.855 220.89 324.855 220.856V220.757C324.855 220.691 324.855 220.625 324.855 220.556C324.889 220.502 324.903 220.442 324.896 220.381C324.89 220.321 324.862 220.264 324.818 220.216L324.799 219.967C324.811 219.956 324.819 219.943 324.823 219.928C324.828 219.914 324.828 219.899 324.825 219.884C324.822 219.87 324.815 219.856 324.804 219.844C324.794 219.832 324.78 219.823 324.765 219.816C324.74 219.619 324.678 219.428 324.581 219.248C324.592 219.227 324.597 219.204 324.595 219.181C324.594 219.158 324.587 219.136 324.574 219.116C324.561 219.095 324.543 219.078 324.521 219.065C324.499 219.051 324.474 219.042 324.447 219.039C324.437 219.026 324.429 219.013 324.422 218.999C324.366 218.758 324.082 218.763 323.898 218.67C323.649 218.545 323.427 218.429 323.383 218.158C323.381 218.108 323.357 218.061 323.316 218.026C323.275 217.991 323.22 217.97 323.162 217.967L323.115 217.943H323.006C323.064 218.042 323.113 218.145 323.153 218.251C323.113 218.145 323.064 218.042 323.006 217.943H323.115L322.947 217.264C322.947 217.23 322.947 217.198 322.963 217.163C322.978 217.129 323.047 217.108 323.056 217.076C323.194 216.656 323.183 216.212 323.025 215.797C323.011 215.745 322.977 215.698 322.929 215.663C322.88 215.628 322.82 215.607 322.757 215.604L322.685 215.548C322.635 215.467 322.551 215.404 322.449 215.373C322.347 215.343 322.236 215.345 322.136 215.381L322.027 215.362C321.789 215.314 321.54 215.325 321.309 215.394C321.078 215.463 320.875 215.586 320.724 215.75C320.715 215.764 320.709 215.779 320.705 215.795C320.632 216.097 320.609 216.407 320.636 216.715L320.608 216.861C320.552 216.896 320.552 216.933 320.608 216.967L320.636 217.063C320.545 217.28 320.373 217.466 320.147 217.593C319.813 217.797 319.473 218.031 319.448 218.437L319.42 218.455C319.205 218.455 318.996 218.471 318.899 218.675L318.796 218.71C318.706 218.701 318.615 218.713 318.531 218.745C318.448 218.776 318.376 218.825 318.322 218.887C318.07 219.135 317.886 219.426 317.783 219.742C317.593 220.272 317.683 220.802 317.518 221.333C317.512 221.406 317.522 221.48 317.546 221.55L317.515 221.686C317.507 221.8 317.491 221.915 317.468 222.028C317.491 221.915 317.507 221.8 317.515 221.686C317.247 221.877 317.343 222.137 317.34 222.375C317.31 222.529 317.299 222.684 317.306 222.84C317.356 223.129 317.228 223.447 317.481 223.707C317.481 223.824 317.481 223.938 317.496 224.054C317.474 224.176 317.368 224.32 317.543 224.412C317.562 224.458 317.58 224.503 317.596 224.548L317.615 224.935C317.524 224.972 317.537 225.007 317.615 225.036C317.615 225.195 317.643 225.354 317.658 225.516C317.631 225.566 317.62 225.62 317.626 225.675C317.632 225.729 317.655 225.782 317.693 225.826C317.693 225.887 317.714 225.948 317.724 226.007L317.677 226.171L317.789 226.216C317.814 226.277 317.852 226.293 317.911 226.245H317.942H318.001C318.029 226.119 318.029 225.989 318.001 225.863C318.029 225.989 318.029 226.119 318.001 226.245C318.001 226.25 318.003 226.255 318.007 226.26C318.01 226.264 318.015 226.267 318.02 226.269C318.02 226.463 318.02 226.656 317.998 226.847C317.975 226.859 317.959 226.877 317.951 226.899C317.944 226.921 317.946 226.944 317.958 226.964L317.939 227.057C317.909 227.074 317.886 227.099 317.874 227.128C317.861 227.157 317.86 227.189 317.87 227.219C317.87 227.261 317.87 227.301 317.87 227.343L317.942 227.359L317.87 227.343C317.849 227.375 317.836 227.41 317.833 227.446C317.83 227.483 317.836 227.519 317.852 227.553L317.833 227.696C317.686 227.821 317.749 227.961 317.771 228.107V228.128L317.742 228.248H317.727C317.668 228.264 317.64 228.293 317.668 228.346C317.696 228.399 317.668 228.447 317.668 228.497C317.555 228.553 317.558 228.622 317.636 228.701C317.636 228.749 317.636 228.797 317.615 228.845V228.993V228.845C317.523 228.949 317.461 229.07 317.43 229.198C317.4 229.326 317.403 229.458 317.44 229.585V229.677C317.369 229.728 317.319 229.796 317.294 229.872C317.27 229.947 317.273 230.028 317.303 230.102C317.343 230.242 317.265 230.463 317.571 230.46H317.789C318.057 230.524 318.319 230.598 318.588 230.654C319.115 230.76 319.09 230.757 319.136 231.203C319.153 231.558 319.246 231.908 319.411 232.234C319.411 232.311 319.411 232.388 319.426 232.465C319.464 232.501 319.493 232.543 319.511 232.588C319.528 232.634 319.535 232.682 319.529 232.73C319.557 233.063 319.639 233.39 319.772 233.704C319.791 233.736 319.807 233.77 319.825 233.805V233.956C319.807 234.001 319.763 234.049 319.772 234.088C319.825 234.457 319.841 234.829 319.819 235.2C319.819 235.29 319.819 235.38 319.928 235.436L319.994 235.629C319.907 235.717 319.975 235.781 320.038 235.844C320.1 235.908 320.153 235.948 320.119 236.017C320.038 236.173 320.181 236.205 320.287 236.282C320.802 236.619 321.391 236.306 321.927 236.43C321.943 236.43 321.965 236.43 321.983 236.415C322.274 236.335 322.548 236.216 322.794 236.062C322.953 235.945 323.106 235.85 323.034 235.667C322.963 235.484 322.975 235.152 322.591 235.099C322.528 235.047 322.478 234.984 322.446 234.915C322.413 234.845 322.398 234.771 322.401 234.696C322.504 234.495 322.511 234.267 322.42 234.062V233.921C322.517 233.895 322.57 233.823 322.638 233.767C322.638 233.717 322.638 233.664 322.623 233.614L322.651 233.569C322.738 233.531 322.747 233.484 322.691 233.417C322.794 233.006 322.9 232.595 323.003 232.184C323.084 232.147 323.084 232.094 323.031 232.038C323.031 231.956 323.05 231.876 323.056 231.797C323.084 231.773 323.121 231.757 323.14 231.728C323.22 231.577 323.335 231.442 323.478 231.33C323.621 231.218 323.789 231.132 323.973 231.078L324.222 231.091C324.324 230.996 324.395 230.88 324.428 230.754C324.547 230.709 324.55 230.661 324.428 230.614C324.428 230.457 324.428 230.303 324.428 230.147C324.428 229.529 324.462 228.908 324.406 228.29C324.422 228.242 324.441 228.195 324.459 228.147C324.491 228.127 324.514 228.098 324.524 228.065C324.534 228.032 324.529 227.997 324.512 227.967L324.531 227.436L324.484 227.367C324.484 227.216 324.484 227.065 324.484 226.914C324.518 226.875 324.536 226.829 324.536 226.781C324.536 226.733 324.518 226.687 324.484 226.648L324.419 226.781C324.357 227.087 324.341 227.398 324.372 227.707C324.341 227.398 324.357 227.087 324.419 226.781L324.484 226.648C324.484 226.603 324.484 226.561 324.484 226.516C324.581 226.447 324.512 226.335 324.578 226.251C324.621 226.383 324.562 226.516 324.653 226.635C324.6 226.871 324.771 226.956 324.999 227.006C325.105 227.038 325.221 227.033 325.323 226.994C325.425 226.954 325.506 226.883 325.548 226.794C325.747 226.396 325.777 225.952 325.632 225.537ZM324.609 225.505C324.61 225.501 324.61 225.496 324.609 225.492C324.61 225.496 324.61 225.501 324.609 225.505ZM317.951 227.709C317.966 227.726 317.974 227.746 317.974 227.766C317.974 227.787 317.966 227.807 317.951 227.823C317.963 227.808 317.97 227.79 317.97 227.772C317.97 227.753 317.963 227.735 317.951 227.72V227.709ZM318.064 227.067C318.065 227.077 318.065 227.087 318.064 227.097C318.065 227.087 318.065 227.077 318.064 227.067ZM317.979 220.36C317.982 220.454 317.974 220.548 317.955 220.641C317.974 220.548 317.982 220.454 317.979 220.36ZM320.724 217.145C320.711 217.133 320.701 217.119 320.692 217.105C320.701 217.119 320.711 217.133 320.724 217.145C320.792 217.224 320.917 217.28 320.873 217.41C320.917 217.28 320.792 217.224 320.724 217.145ZM321.232 231.261H321.029C320.932 231.081 321.01 230.863 320.858 230.696V230.619C320.879 230.539 320.898 230.46 320.926 230.383C320.97 230.258 321.042 230.16 321.238 230.181C321.435 230.203 321.425 230.317 321.431 230.433C321.447 230.719 321.379 231.004 321.232 231.261ZM320.889 217.498C320.856 217.584 320.802 217.664 320.729 217.731C320.656 217.798 320.567 217.851 320.468 217.885C320.569 217.852 320.661 217.8 320.736 217.733C320.811 217.666 320.868 217.586 320.901 217.498H320.889ZM321.263 231.455V231.585C321.263 231.539 321.263 231.497 321.263 231.455C321.328 231.431 321.391 231.399 321.397 231.338C321.391 231.399 321.328 231.433 321.263 231.455ZM322.863 216.72C322.598 216.673 322.501 216.641 322.47 216.519C322.501 216.641 322.598 216.673 322.863 216.72ZM322.648 217.272C322.651 217.285 322.651 217.299 322.648 217.312V217.455V217.312C322.651 217.299 322.651 217.285 322.648 217.272ZM322.688 217.601C322.685 217.673 322.713 217.744 322.766 217.8C322.713 217.744 322.685 217.673 322.688 217.601ZM322.825 217.819C322.859 217.833 322.889 217.855 322.909 217.882C322.889 217.855 322.859 217.833 322.825 217.819ZM325.473 224.672V224.407C325.429 224.391 325.404 224.37 325.41 224.338C325.41 224.37 325.429 224.391 325.473 224.407V224.672ZM324.93 221.951C324.891 221.834 324.9 221.71 324.955 221.598C324.9 221.71 324.891 221.834 324.93 221.951ZM324.724 221.2C324.787 221.272 324.79 221.367 324.849 221.439C324.79 221.367 324.787 221.272 324.724 221.2C324.724 221.054 324.709 220.909 324.702 220.765L324.724 221.2ZM320.671 217.057C320.719 216.929 320.759 216.799 320.792 216.667C320.759 216.799 320.719 216.929 320.671 217.057ZM320.521 217.503C320.464 217.531 320.412 217.565 320.365 217.604C320.414 217.565 320.468 217.531 320.527 217.503H320.521ZM317.958 220.023C318.036 219.893 318.102 219.758 318.157 219.62C318.102 219.758 318.036 219.893 317.958 220.023V220.169C317.955 220.121 317.961 220.073 317.964 220.028L317.958 220.023ZM317.54 224.06C317.566 224.019 317.581 223.973 317.583 223.927C317.581 223.973 317.566 224.019 317.54 224.06V224.251V224.06ZM318.182 226.553C318.188 226.668 318.146 226.78 318.064 226.871C318.148 226.781 318.193 226.668 318.188 226.553H318.182ZM318.008 227.349V227.372C318.027 227.396 318.039 227.424 318.045 227.452C318.05 227.468 318.05 227.484 318.045 227.5C318.05 227.484 318.05 227.468 318.045 227.452C318.039 227.424 318.027 227.396 318.008 227.372V227.349ZM317.848 228.16C317.961 228.105 317.92 228.044 317.848 227.983C317.848 227.969 317.848 227.953 317.848 227.94C317.85 227.954 317.85 227.968 317.848 227.983C317.911 228.044 317.951 228.105 317.848 228.16L317.83 228.258L317.848 228.16ZM317.658 229.049C317.745 228.947 317.81 228.833 317.852 228.712C317.81 228.833 317.745 228.947 317.658 229.049L317.59 229.192L317.658 229.049ZM317.54 230.03C317.578 230.046 317.611 230.069 317.637 230.098C317.663 230.126 317.681 230.159 317.689 230.195C317.683 230.158 317.667 230.124 317.642 230.094C317.617 230.064 317.584 230.04 317.546 230.022L317.54 230.03ZM317.599 229.452C317.6 229.458 317.6 229.464 317.599 229.471C317.602 229.462 317.604 229.453 317.605 229.444L317.599 229.452ZM322.938 232.067C322.902 231.781 322.941 231.492 323.053 231.221C322.945 231.49 322.908 231.777 322.944 232.059L322.938 232.067ZM324.403 226.174C324.42 226.228 324.427 226.284 324.425 226.341C324.43 226.282 324.425 226.223 324.409 226.166L324.403 226.174ZM324.578 225.545C324.578 225.648 324.596 225.752 324.609 225.855C324.603 225.744 324.593 225.64 324.584 225.537L324.578 225.545ZM324.634 225.959C324.634 226.004 324.649 226.049 324.656 226.094C324.643 226.041 324.643 225.996 324.643 225.951L324.634 225.959ZM325.594 226.322C325.607 226.16 325.586 225.998 325.532 225.842C325.532 225.778 325.532 225.707 325.532 225.646C325.516 225.707 325.532 225.778 325.532 225.842C325.587 225.995 325.61 226.155 325.601 226.314L325.594 226.322Z" fill="#221F22"/>
<g filter="url(#filter1_f_66_447)">
<path d="M325.722 235.912L322.739 234.333L271.889 263.889L325.722 235.912Z" fill="url(#paint2_linear_66_447)"/>
</g>
<defs>
<filter id="filter0_f_66_447" x="58.7262" y="-216.407" width="671.303" height="672.764" filterUnits="userSpaceOnUse" color-interpolation-filters="sRGB">
<feFlood flood-opacity="0" result="BackgroundImageFix"/>
<feBlend mode="normal" in="SourceGraphic" in2="BackgroundImageFix" result="shape"/>
<feGaussianBlur stdDeviation="111.38" result="effect1_foregroundBlur_66_447"/>
</filter>
<filter id="filter1_f_66_447" x="257.889" y="220.333" width="81.8334" height="57.5557" filterUnits="userSpaceOnUse" color-interpolation-filters="sRGB">
<feFlood flood-opacity="0" result="BackgroundImageFix"/>
<feBlend mode="normal" in="SourceGraphic" in2="BackgroundImageFix" result="shape"/>
<feGaussianBlur stdDeviation="7" result="effect1_foregroundBlur_66_447"/>
</filter>
<linearGradient id="paint0_linear_66_447" x1="62.64" y1="53.32" x2="0" y2="53.32" gradientUnits="userSpaceOnUse">
<stop stop-color="#8B5CF6"/>
<stop offset="1" stop-color="#F59E0B"/>
</linearGradient>
<linearGradient id="paint1_linear_66_447" x1="332.783" y1="208.933" x2="327.812" y2="255.402" gradientUnits="userSpaceOnUse">
<stop stop-color="#737C8B"/>
<stop offset="1" stop-color="#202328" stop-opacity="0"/>
</linearGradient>
<linearGradient id="paint2_linear_66_447" x1="297.111" y1="257.05" x2="246.065" y2="296.065" gradientUnits="userSpaceOnUse">
<stop/>
<stop offset="1" stop-opacity="0"/>
</linearGradient>
</defs>
</svg>
