<svg width="199" height="63" viewBox="0 0 199 63" fill="none" xmlns="http://www.w3.org/2000/svg">
<rect width="62.64" height="62.64" rx="31.32" fill="url(#paint0_linear_58_450)"/>
<path d="M47.7535 41.0924C47.1778 40.6991 48.3538 41.4857 47.7535 41.0924C48.2633 41.4201 48.4607 42.092 48.2304 42.6491C48.0248 43.1407 47.5232 43.4521 46.9969 43.4275C46.4459 43.4029 45.9689 43.0342 45.8209 42.5262C45.6564 42.0018 45.862 41.4365 46.2979 41.117C46.7255 40.8138 47.3258 40.8056 47.7617 41.1006L47.7535 41.0924ZM31.3554 53.0054C31.6515 53.0054 31.9311 53.0054 32.2354 53.0054C32.811 52.9726 33.4031 52.9235 33.9788 52.8661C33.0248 52.9726 34.4475 52.8088 33.9788 52.8661C34.5545 52.7842 35.0479 53.3413 34.9081 53.9067C34.8423 54.1688 34.6614 54.3983 34.4147 54.4802C34.2502 54.5621 34.0857 54.5621 33.9212 54.5785C33.7321 54.6031 33.5347 54.6195 33.3456 54.6359C31.7831 54.767 30.2206 54.7424 28.6827 54.5785C27.2847 54.4146 25.8867 54.1443 24.5462 53.7428C23.2304 53.3577 21.964 52.8415 20.7387 52.2107C19.5051 51.5798 18.3373 50.8178 17.2354 49.9985C15.9771 49.0399 14.8094 47.9665 13.7814 46.7867C12.737 45.6233 11.8077 44.3451 11.0347 42.9932C10.237 41.6004 9.57912 40.1502 9.0857 38.6508C8.57583 37.0941 8.23044 35.4964 8.04952 33.8823C7.88504 32.2437 7.8686 30.5804 8.04952 28.9336C8.21399 27.3195 8.54294 25.7218 9.03636 24.1651C9.52978 22.6494 10.1712 21.1828 10.9607 19.7981C11.742 18.4216 12.6712 17.1271 13.7156 15.9309C14.7354 14.7511 15.8949 13.6695 17.1449 12.7191C18.4031 11.7687 19.7765 10.933 21.1992 10.2448C22.6548 9.54014 24.1762 8.99119 25.7469 8.60611C27.3505 8.21283 28.987 7.98342 30.6318 7.93426C32.2765 7.87691 33.9377 7.99161 35.566 8.27838C37.1449 8.56514 38.691 9.01577 40.1877 9.60569C41.6515 10.1956 43.066 10.933 44.3818 11.8179C45.6975 12.6782 46.9311 13.6777 48.0413 14.792C48.51 15.259 48.9459 15.7424 49.2337 16.3487C49.4804 16.8649 49.6449 17.4303 49.6696 18.012C49.7518 19.1918 49.3406 20.3716 48.5429 21.2565C47.6219 22.2807 46.2403 22.8378 44.867 22.7313C44.2091 22.6903 43.5512 22.5019 42.9755 22.1742C42.663 22.0103 42.3834 21.7973 42.1367 21.5597C41.8489 21.2893 41.5857 21.0025 41.2979 20.7403C40.1466 19.6752 38.8308 18.7739 37.3998 18.1349C35.9196 17.4794 34.3406 17.0534 32.737 16.9059C31.0923 16.7666 29.4311 16.8895 27.8275 17.291C26.265 17.676 24.7847 18.3233 23.4443 19.2C22.1285 20.0603 20.9525 21.1336 19.9903 22.3708C19.0035 23.6162 18.214 25.0172 17.6877 26.5166C17.1449 28.0487 16.8653 29.6628 16.8653 31.2687C16.8653 32.9073 17.1285 34.546 17.6712 36.0781C18.1893 37.5529 18.9541 38.9621 19.9245 40.2075C20.8949 41.4365 22.0627 42.518 23.3785 43.3865C24.7189 44.2714 26.2074 44.9432 27.7617 45.3365C29.3571 45.7462 31.0265 45.8855 32.6712 45.7462C34.2748 45.6069 35.8456 45.1972 37.3176 44.55C37.4821 44.468 37.6219 44.3861 37.7864 44.3615C37.9179 44.3287 38.066 44.3369 38.1975 44.3779C38.4771 44.4598 38.691 44.6892 38.7732 44.9514C38.8554 45.23 38.7732 45.525 38.6087 45.738C38.5018 45.8609 38.362 45.9346 38.2222 46.0084C38.0577 46.0903 37.8686 46.1722 37.6877 46.2378C36.2074 46.8686 34.612 47.2619 33.0002 47.4258C31.3554 47.5897 29.6943 47.4913 28.0824 47.1636C28.288 47.4094 28.4936 47.6552 28.6745 47.9174C28.8637 48.1796 29.0446 48.4418 29.2255 48.7203C29.242 48.7613 29.3077 48.8678 29.3077 48.8678C29.3077 48.8678 29.3406 48.8678 29.39 48.8678C29.4722 48.8842 29.5545 48.8924 29.6367 48.9006C29.8012 48.9252 29.9656 48.9333 30.1301 48.9497C30.8209 48.9907 31.5035 48.9989 32.186 48.9743C33.5265 48.917 34.8587 48.7039 36.1499 48.3434C37.4081 47.9993 38.617 47.5077 39.7683 46.8932C40.8949 46.2951 41.9475 45.5823 42.9179 44.7466C43.1647 44.55 43.3867 44.3369 43.617 44.1239C43.8225 43.9355 44.0035 43.7142 44.2584 43.5831C44.6943 43.3619 45.2452 43.4193 45.6318 43.7224C46.0183 44.0338 46.2074 44.5418 46.0841 45.0334C46.0183 45.2792 45.8867 45.484 45.7058 45.6642C45.4837 45.8855 45.2535 46.0985 45.0232 46.3197C44.0939 47.1636 43.0742 47.9256 41.9804 48.5892C40.8867 49.2447 39.7272 49.8182 38.5265 50.2689C37.2765 50.7277 35.9936 51.0718 34.686 51.2848C33.3373 51.4896 31.9722 51.5716 30.6071 51.5306C30.714 51.8256 30.8127 52.1287 30.9031 52.4319C30.9443 52.5712 30.9854 52.7104 31.0183 52.8415C31.0183 52.8907 31.0594 53.0218 31.0594 53.0218H31.3308L31.3554 53.0054ZM44.4558 48.6957C42.0462 50.4983 44.8341 48.4172 44.4558 48.6957C44.5873 48.6138 44.7436 48.5483 44.8998 48.5319C45.2288 48.5073 45.5413 48.6712 45.7058 48.9415C45.8702 49.2283 45.8702 49.597 45.6811 49.8592C45.5742 50.0231 45.4179 50.105 45.2699 50.2197C45.1054 50.3426 44.9245 50.4655 44.7518 50.5802C44.4229 50.826 44.0693 51.039 43.7239 51.2602C42.3094 52.1123 40.8127 52.817 39.2584 53.3741C38.4854 53.6445 37.6959 53.8657 36.89 54.0623C36.5281 54.1443 36.1745 54.0869 35.936 53.792C35.7304 53.5216 35.6893 53.1529 35.8538 52.8579C35.9114 52.7186 36.0183 52.6121 36.1581 52.5302C36.3225 52.4237 36.5035 52.3991 36.6762 52.3663C37.0873 52.2598 37.4821 52.1451 37.8768 52.0222C38.6581 51.7764 39.4393 51.4978 40.1795 51.1619C41.6926 50.4901 43.1235 49.6544 44.4393 48.6712L44.4558 48.6957ZM47.2929 46.1804C46.9969 46.4836 47.6219 45.8281 47.2929 46.1804C47.6712 45.7707 48.362 45.8363 48.6499 46.3115C48.765 46.5081 48.7979 46.7457 48.7321 46.967C48.6745 47.2373 48.4525 47.4258 48.2633 47.6224C48.0495 47.8518 47.8193 48.0731 47.589 48.2943C47.3752 48.4909 47.112 48.6056 46.8242 48.5647C46.3143 48.4827 45.9854 47.9747 46.1334 47.4995C46.2156 47.221 46.4295 47.0571 46.6268 46.8686C46.8571 46.6474 47.0873 46.4098 47.3094 46.1804H47.2929ZM41.9475 41.2645C41.1252 42.1247 42.2765 40.9203 41.9475 41.2645C42.2272 40.9695 42.6877 40.9121 43.0166 41.1252C43.3702 41.3382 43.51 41.7806 43.3702 42.1575C43.288 42.3378 43.1482 42.4852 43.0002 42.6245C42.8604 42.7884 42.7041 42.9277 42.5479 43.0834C42.2765 43.3292 41.9969 43.575 41.7008 43.8208C41.3883 44.0666 41.0676 44.3124 40.7469 44.5336C40.4179 44.7794 39.9656 44.7958 39.6449 44.5336C39.3653 44.2878 39.2748 43.8945 39.3982 43.5504C39.4804 43.3865 39.5873 43.2636 39.7271 43.1653C39.8916 43.0424 40.0725 42.9195 40.2452 42.7884C40.862 42.3296 41.4295 41.8052 41.9722 41.2563L41.9475 41.2645ZM31.4377 25.7628C31.7255 25.7628 32.0133 25.7792 32.2929 25.8283C33.4031 25.9922 34.4558 26.5166 35.2699 27.3031C36.0923 28.0733 36.6515 29.0893 36.8818 30.1954C37.112 31.326 36.964 32.5222 36.4952 33.5792C36.0429 34.5951 35.2781 35.4636 34.3242 36.0372C33.3373 36.6353 32.1614 36.9138 31.01 36.8237C29.8752 36.7418 28.7897 36.2911 27.9015 35.5701C27.038 34.8573 26.4048 33.8905 26.0923 32.8172C25.7798 31.7029 25.8209 30.4985 26.2156 29.4088C26.6021 28.3683 27.3094 27.4424 28.2222 26.8033C29.1597 26.1479 30.2946 25.7792 31.4295 25.7792L31.4377 25.7628Z" fill="white"/>
<path d="M89.6677 18.2417C89.2224 14.5464 86.4255 12.4214 82.7224 12.4214C78.4958 12.4214 75.2693 15.4058 75.2693 20.6401C75.2693 25.8589 78.4412 28.8589 82.7224 28.8589C86.824 28.8589 89.3005 26.1323 89.6677 23.187L86.2458 23.1714C85.9255 24.8823 84.5818 25.8667 82.7771 25.8667C80.3474 25.8667 78.699 24.062 78.699 20.6401C78.699 17.312 80.324 15.4136 82.8005 15.4136C84.6521 15.4136 85.988 16.4839 86.2458 18.2417H89.6677ZM95.1791 21.7026C95.1869 20.1558 96.1323 19.2495 97.4916 19.2495C98.8432 19.2495 99.6401 20.1167 99.6323 21.5933V28.6401H102.96V20.9995C102.968 18.187 101.312 16.4839 98.8119 16.4839C96.9916 16.4839 95.7729 17.3433 95.226 18.7573H95.0854V12.6401H91.851V28.6401H95.1791V21.7026ZM108.821 28.8667C110.595 28.8667 111.743 28.0933 112.329 26.9761H112.423V28.6401H115.579V20.5464C115.579 17.687 113.157 16.4839 110.485 16.4839C107.61 16.4839 105.72 17.8589 105.259 20.0464L108.337 20.2964C108.564 19.4995 109.275 18.9136 110.47 18.9136C111.603 18.9136 112.251 19.4839 112.251 20.4683V20.5151C112.251 21.2886 111.431 21.3901 109.345 21.5933C106.97 21.812 104.837 22.6089 104.837 25.2886C104.837 27.6636 106.532 28.8667 108.821 28.8667ZM109.775 26.5698C108.751 26.5698 108.017 26.0933 108.017 25.1792C108.017 24.2417 108.79 23.7808 109.962 23.6167C110.689 23.5151 111.876 23.3433 112.275 23.0776V24.3511C112.275 25.6089 111.235 26.5698 109.775 26.5698ZM117.981 28.6401H121.309V21.8511C121.309 20.3745 122.387 19.3589 123.856 19.3589C124.317 19.3589 124.95 19.437 125.262 19.5386V16.5854C124.966 16.5151 124.552 16.4683 124.216 16.4683C122.872 16.4683 121.77 17.2495 121.333 18.7339H121.208V16.6401H117.981V28.6401ZM131.651 33.3901C135.081 33.3901 137.518 31.8276 137.518 28.7573V16.6401H134.213V18.6558H134.088C133.643 17.6792 132.666 16.4839 130.659 16.4839C128.026 16.4839 125.799 18.5308 125.799 22.6167C125.799 26.6089 127.963 28.4683 130.666 28.4683C132.581 28.4683 133.651 27.5073 134.088 26.5151H134.229V28.7104C134.229 30.3589 133.174 30.9995 131.729 30.9995C130.26 30.9995 129.518 30.3589 129.245 29.6323L126.166 30.0464C126.565 31.937 128.416 33.3901 131.651 33.3901ZM131.721 25.9683C130.088 25.9683 129.198 24.6714 129.198 22.6011C129.198 20.562 130.073 19.1323 131.721 19.1323C133.338 19.1323 134.245 20.4995 134.245 22.6011C134.245 24.7183 133.323 25.9683 131.721 25.9683ZM145.455 28.8745C148.424 28.8745 150.424 27.4292 150.893 25.2026L147.815 24.9995C147.479 25.9136 146.619 26.3901 145.51 26.3901C143.846 26.3901 142.791 25.2886 142.791 23.4995V23.4917H150.963V22.5776C150.963 18.4995 148.494 16.4839 145.322 16.4839C141.791 16.4839 139.502 18.9917 139.502 22.6948C139.502 26.4995 141.76 28.8745 145.455 28.8745ZM142.791 21.4292C142.861 20.062 143.901 18.9683 145.377 18.9683C146.822 18.9683 147.822 19.9995 147.83 21.4292H142.791ZM153.017 28.6401H156.299V26.7183H156.447C156.908 27.7183 157.916 28.8354 159.853 28.8354C162.588 28.8354 164.721 26.6714 164.721 22.6558C164.721 18.5308 162.494 16.4839 159.861 16.4839C157.853 16.4839 156.892 17.6792 156.447 18.6558H156.346V12.6401H153.017V28.6401ZM156.275 22.6401C156.275 20.4995 157.181 19.1323 158.799 19.1323C160.447 19.1323 161.322 20.562 161.322 22.6401C161.322 24.7339 160.431 26.187 158.799 26.187C157.197 26.187 156.275 24.7808 156.275 22.6401ZM172.23 28.8745C175.199 28.8745 177.199 27.4292 177.667 25.2026L174.589 24.9995C174.253 25.9136 173.394 26.3901 172.285 26.3901C170.621 26.3901 169.566 25.2886 169.566 23.4995V23.4917H177.738V22.5776C177.738 18.4995 175.269 16.4839 172.097 16.4839C168.566 16.4839 166.277 18.9917 166.277 22.6948C166.277 26.4995 168.535 28.8745 172.23 28.8745ZM169.566 21.4292C169.636 20.062 170.675 18.9683 172.152 18.9683C173.597 18.9683 174.597 19.9995 174.605 21.4292H169.566ZM185.198 28.8745C188.167 28.8745 190.167 27.4292 190.636 25.2026L187.558 24.9995C187.222 25.9136 186.362 26.3901 185.253 26.3901C183.589 26.3901 182.534 25.2886 182.534 23.4995V23.4917H190.706V22.5776C190.706 18.4995 188.237 16.4839 185.066 16.4839C181.534 16.4839 179.245 18.9917 179.245 22.6948C179.245 26.4995 181.503 28.8745 185.198 28.8745ZM182.534 21.4292C182.605 20.062 183.644 18.9683 185.12 18.9683C186.566 18.9683 187.566 19.9995 187.573 21.4292H182.534ZM81.2224 51.6401C86.0974 51.6401 89.0505 48.6245 89.0505 43.6245C89.0505 38.6401 86.0974 35.6401 81.2693 35.6401H75.5505V51.6401H81.2224ZM78.9333 48.7417V38.5386H81.0896C84.0896 38.5386 85.6755 40.0698 85.6755 43.6245C85.6755 47.1948 84.0896 48.7417 81.0818 48.7417H78.9333ZM96.7826 51.8745C99.7514 51.8745 101.751 50.4292 102.22 48.2026L99.142 47.9995C98.8061 48.9136 97.9467 49.3901 96.8373 49.3901C95.1733 49.3901 94.1186 48.2886 94.1186 46.4995V46.4917H102.29V45.5776C102.29 41.4995 99.8217 39.4839 96.6498 39.4839C93.1186 39.4839 90.8295 41.9917 90.8295 45.6948C90.8295 49.4995 93.0873 51.8745 96.7826 51.8745ZM94.1186 44.4292C94.1889 43.062 95.228 41.9683 96.7045 41.9683C98.1498 41.9683 99.1498 42.9995 99.1576 44.4292H94.1186ZM114.267 43.062C113.97 40.8511 112.189 39.4839 109.157 39.4839C106.087 39.4839 104.064 40.9058 104.071 43.2183C104.064 45.0151 105.196 46.1792 107.54 46.6479L109.618 47.062C110.665 47.2729 111.142 47.6558 111.157 48.2573C111.142 48.9683 110.368 49.4761 109.204 49.4761C108.017 49.4761 107.228 48.9683 107.025 47.9917L103.751 48.1636C104.064 50.4604 106.017 51.8745 109.196 51.8745C112.306 51.8745 114.532 50.2886 114.54 47.9214C114.532 46.187 113.4 45.1479 111.071 44.6714L108.9 44.2339C107.782 43.9917 107.368 43.6089 107.376 43.0308C107.368 42.312 108.181 41.8433 109.212 41.8433C110.368 41.8433 111.056 42.4761 111.22 43.2495L114.267 43.062ZM116.456 51.6401H119.784V39.6401H116.456V51.6401ZM118.128 38.0933C119.12 38.0933 119.932 37.3354 119.932 36.4058C119.932 35.4839 119.12 34.7261 118.128 34.7261C117.143 34.7261 116.331 35.4839 116.331 36.4058C116.331 37.3354 117.143 38.0933 118.128 38.0933ZM127.676 56.3901C131.106 56.3901 133.543 54.8276 133.543 51.7573V39.6401H130.239V41.6558H130.114C129.668 40.6792 128.692 39.4839 126.684 39.4839C124.051 39.4839 121.825 41.5308 121.825 45.6167C121.825 49.6089 123.989 51.4683 126.692 51.4683C128.606 51.4683 129.676 50.5073 130.114 49.5151H130.254V51.7104C130.254 53.3589 129.2 53.9995 127.754 53.9995C126.286 53.9995 125.543 53.3589 125.27 52.6323L122.192 53.0464C122.59 54.937 124.442 56.3901 127.676 56.3901ZM127.747 48.9683C126.114 48.9683 125.223 47.6714 125.223 45.6011C125.223 43.562 126.098 42.1323 127.747 42.1323C129.364 42.1323 130.27 43.4995 130.27 45.6011C130.27 47.7183 129.348 48.9683 127.747 48.9683ZM139.34 44.7026C139.348 43.1558 140.27 42.2495 141.613 42.2495C142.949 42.2495 143.754 43.1245 143.746 44.5933V51.6401H147.074V43.9995C147.074 41.2026 145.434 39.4839 142.934 39.4839C141.152 39.4839 139.863 40.3589 139.324 41.7573H139.184V39.6401H136.012V51.6401H139.34V44.7026Z" fill="#5B616C"/>
<defs>
<linearGradient id="paint0_linear_58_450" x1="62.64" y1="31.32" x2="0" y2="31.32" gradientUnits="userSpaceOnUse">
<stop stop-color="#8B5CF6"/>
<stop offset="1" stop-color="#F59E0B"/>
</linearGradient>
</defs>
</svg>
